<svg width="40" height="40" viewBox="0 0 40 40" fill="none" xmlns="http://www.w3.org/2000/svg">
<rect width="40" height="40" rx="8" fill="#C2DDD7"/>
<path d="M14.3112 31.25H14.3325C15.1112 31.2412 15.7762 30.7312 15.9875 29.9825L20.08 13.45L24.0525 27.4987C24.2912 28.245 24.915 28.7187 25.6525 28.7475C26.4175 28.7887 27.0513 28.3537 27.3338 27.67L29.3338 22.0775C29.5125 21.5825 29.985 21.2487 30.5112 21.2487H33.75C34.4412 21.2487 35 20.6887 35 19.9987C35 19.3087 34.4412 18.7487 33.75 18.7487H30.5112C28.9312 18.7487 27.5138 19.7475 26.98 21.235L25.8075 24.5175L21.7025 9.99873C21.4513 9.21748 20.7938 8.71498 20.0013 8.74873C19.2288 8.76248 18.5687 9.27123 18.3575 10.0137L14.2838 26.4712L12.9562 21.5262C12.5175 19.8912 11.0288 18.7487 9.335 18.7487H6.2525C5.56125 18.7487 5.0025 19.3087 5.0025 19.9987C5.0025 20.6887 5.56125 21.2487 6.2525 21.2487H9.335C9.9 21.2487 10.3963 21.63 10.5425 22.1737L12.6388 29.9762C12.8775 30.7575 13.545 31.2487 14.315 31.2487L14.3112 31.25Z" fill="#1F6F5F"/>
</svg>
