<svg width="40" height="40" viewBox="0 0 40 40" fill="none" xmlns="http://www.w3.org/2000/svg">
<rect width="40" height="40" rx="12" fill="#F3E8DD"/>
<path d="M20 26.25C16.55 26.25 13.75 23.45 13.75 20C13.75 16.55 16.55 13.75 20 13.75C23.45 13.75 26.25 16.55 26.25 20C26.25 23.45 23.45 26.25 20 26.25ZM20 16.25C17.9375 16.25 16.25 17.9375 16.25 20C16.25 22.0625 17.9375 23.75 20 23.75C22.0625 23.75 23.75 22.0625 23.75 20C23.75 17.9375 22.0625 16.25 20 16.25ZM21.25 10V6.25C21.25 5.5625 20.6875 5 20 5C19.3125 5 18.75 5.5625 18.75 6.25V10C18.75 10.6875 19.3125 11.25 20 11.25C20.6875 11.25 21.25 10.6875 21.25 10ZM21.25 33.75V30C21.25 29.3125 20.6875 28.75 20 28.75C19.3125 28.75 18.75 29.3125 18.75 30V33.75C18.75 34.4375 19.3125 35 20 35C20.6875 35 21.25 34.4375 21.25 33.75ZM11.25 20C11.25 19.3125 10.6875 18.75 10 18.75H6.25C5.5625 18.75 5 19.3125 5 20C5 20.6875 5.5625 21.25 6.25 21.25H10C10.6875 21.25 11.25 20.6875 11.25 20ZM35 20C35 19.3125 34.4375 18.75 33.75 18.75H30C29.3125 18.75 28.75 19.3125 28.75 20C28.75 20.6875 29.3125 21.25 30 21.25H33.75C34.4375 21.25 35 20.6875 35 20ZM13.3875 13.3875C13.875 12.9 13.875 12.1125 13.3875 11.625L10.8875 9.125C10.4 8.6375 9.6125 8.6375 9.125 9.125C8.6375 9.6125 8.6375 10.4 9.125 10.8875L11.625 13.3875C11.875 13.6375 12.1875 13.75 12.5125 13.75C12.8375 13.75 13.15 13.625 13.4 13.3875H13.3875ZM30.8875 30.8875C31.375 30.4 31.375 29.6125 30.8875 29.125L28.3875 26.625C27.9 26.1375 27.1125 26.1375 26.625 26.625C26.1375 27.1125 26.1375 27.9 26.625 28.3875L29.125 30.8875C29.375 31.1375 29.6875 31.25 30.0125 31.25C30.3375 31.25 30.65 31.125 30.9 30.8875H30.8875ZM10.8875 30.8875L13.3875 28.3875C13.875 27.9 13.875 27.1125 13.3875 26.625C12.9 26.1375 12.1125 26.1375 11.625 26.625L9.125 29.125C8.6375 29.6125 8.6375 30.4 9.125 30.8875C9.375 31.1375 9.6875 31.25 10.0125 31.25C10.3375 31.25 10.65 31.125 10.9 30.8875H10.8875ZM28.3875 13.3875L30.8875 10.8875C31.375 10.4 31.375 9.6125 30.8875 9.125C30.4 8.6375 29.6125 8.6375 29.125 9.125L26.625 11.625C26.1375 12.1125 26.1375 12.9 26.625 13.3875C26.875 13.6375 27.1875 13.75 27.5125 13.75C27.8375 13.75 28.15 13.625 28.4 13.3875H28.3875Z" fill="#E3BE29"/>
</svg>
