<svg width="20" height="20" viewBox="0 0 20 20" fill="none" xmlns="http://www.w3.org/2000/svg">
<g clip-path="url(#clip0_185_89)">
<path d="M4.58333 8.74083L1.3425 12.1758C0.476667 13.0417 0 14.1925 0 15.4167C0 16.6408 0.476667 17.7925 1.3425 18.6575C2.20833 19.5233 3.35917 20 4.58333 20C5.8075 20 6.95833 19.5233 7.82417 18.6575C9.61167 16.87 9.61167 13.9625 7.84083 12.1925L4.58333 8.74083ZM6.64583 17.4783C5.54417 18.58 3.62333 18.58 2.52083 17.4783C1.97 16.9275 1.66667 16.195 1.66667 15.4158C1.66667 14.6367 1.97 13.9042 2.53833 13.3358L4.58333 11.1683L6.64583 13.3533C7.78333 14.4908 7.78333 16.3408 6.64583 17.4783ZM18.7733 7.87999L15.8333 5.00499L12.8875 7.88666C11.2625 9.51166 11.2625 12.155 12.8875 13.7792C13.6742 14.5658 14.7208 14.9992 15.8333 14.9992C16.9458 14.9992 17.9925 14.5658 18.78 13.7792C20.4042 12.1542 20.4042 9.51083 18.7733 7.87999ZM17.6017 12.6008C16.6567 13.5458 15.01 13.545 14.0658 12.6008C13.0908 11.6258 13.0908 10.04 14.0592 9.07166L15.8333 7.33666L17.6017 9.06499C18.5758 10.04 18.5758 11.6258 17.6017 12.6008ZM8.33333 0.337494L5.97667 2.64333C5.34667 3.27249 5 4.10999 5 4.99999C5 5.88999 5.34667 6.72749 5.97583 7.35666C6.605 7.98666 7.4425 8.33333 8.33333 8.33333C9.22417 8.33333 10.0608 7.98666 10.6908 7.35666C11.9908 6.05666 11.9908 3.94249 10.6842 2.63666L8.33333 0.337494ZM9.5125 6.17833C8.8825 6.80833 7.785 6.80833 7.15583 6.17833C6.84083 5.86333 6.6675 5.44499 6.6675 4.99999C6.6675 4.55499 6.84083 4.13666 7.14917 3.82833L8.33417 2.66916L9.51333 3.82166C10.1633 4.47166 10.1633 5.52833 9.51333 6.17833H9.5125Z" fill="#1D634F"/>
</g>
<defs>
<clipPath id="clip0_185_89">
<rect width="20" height="20" fill="white"/>
</clipPath>
</defs>
</svg>
