<?xml version="1.0" ?><svg viewBox="0 0 32 32" xmlns="http://www.w3.org/2000/svg"><defs><style>.cls-1{fill:#683b32;}.cls-2{fill:#844c3e;}.cls-3{fill:#a96555;}</style></defs><title/><g data-name="chocolate 2" id="chocolate_2"><path class="cls-1" d="M9,10a1,1,0,0,1-.47-.12A10.53,10.53,0,0,1,4.11,5.46a1,1,0,0,1,1.78-.92A8.36,8.36,0,0,0,9.47,8.12,1,1,0,0,1,9,10Z"/><path class="cls-2" d="M24.36,11.64C19,6.26,9.07,7.75,8.65,7.82a1,1,0,0,0-.83.83C7.75,9.07,6.26,19,11.64,24.36c3.4,3.41,8.64,4.06,12.12,4.06a25.69,25.69,0,0,0,3.59-.24,1,1,0,0,0,.83-.83C28.25,26.93,29.74,17,24.36,11.64Z"/><path class="cls-3" d="M27.44,26.27v-.05c0-.07-.05-.13-.07-.2h0C24.78,18,19,12.17,10,8.68a1,1,0,0,0-.88-.1,1,1,0,0,0-.57.6h0a.94.94,0,0,0,0,.66v0h0l.05.12C12.12,18.93,18,24.77,26,27.37a1,1,0,0,0,.5.15,1.12,1.12,0,0,0,.31-.05,1,1,0,0,0,.63-.64.08.08,0,0,1,0,0v-.06a.9.9,0,0,0,0-.46Z"/></g></svg>