<svg width="153" height="26" viewBox="0 0 153 26" fill="none" xmlns="http://www.w3.org/2000/svg">
<rect width="153" height="26" rx="8" fill="#C2DDD7"/>
<path d="M20.6248 11.3072C20.8506 11.537 20.8471 11.9062 20.6167 12.132L18.0348 14.6666C17.5781 15.1146 16.9901 15.338 16.4015 15.338C15.8193 15.338 15.2372 15.1187 14.7822 14.6794L13.6744 13.5903C13.4446 13.3646 13.4417 12.9953 13.6674 12.7655C13.8926 12.5351 14.263 12.5322 14.4922 12.7585L15.5965 13.8441C16.0492 14.2816 16.7637 14.2792 17.2187 13.8336L19.8 11.2996C20.0292 11.0732 20.3973 11.0773 20.6248 11.3072ZM24 13C24 16.8599 20.8599 20 17 20C13.1401 20 10 16.8599 10 13C10 9.14008 13.1401 6 17 6C20.8599 6 24 9.14008 24 13ZM22.8333 13C22.8333 9.7835 20.2165 7.16667 17 7.16667C13.7835 7.16667 11.1667 9.7835 11.1667 13C11.1667 16.2165 13.7835 18.8333 17 18.8333C20.2165 18.8333 22.8333 16.2165 22.8333 13Z" fill="#1F6F5F"/>
<path d="M46.486 18.112C46.2527 18.112 46.0147 18.0933 45.772 18.056C45.5387 18.0187 45.3147 17.9487 45.1 17.846C44.8853 17.7433 44.6893 17.6127 44.512 17.454C44.3347 17.2953 44.1853 17.1133 44.064 16.908C43.952 16.7027 43.868 16.4833 43.812 16.25C43.756 16.0167 43.728 15.7833 43.728 15.55V15.424H44.988V15.494C44.988 15.6993 45.0207 15.9 45.086 16.096C45.1513 16.2827 45.254 16.4507 45.394 16.6C45.534 16.74 45.702 16.8427 45.898 16.908C46.094 16.964 46.29 16.992 46.486 16.992C46.6913 16.992 46.8873 16.9593 47.074 16.894C47.27 16.8287 47.438 16.726 47.578 16.586C47.718 16.4367 47.8207 16.264 47.886 16.068C47.9513 15.872 47.984 15.676 47.984 15.48C47.984 15.2467 47.9373 15.018 47.844 14.794C47.7507 14.57 47.62 14.374 47.452 14.206C47.2933 14.0287 47.1113 13.884 46.906 13.772C46.7007 13.6507 46.4907 13.5387 46.276 13.436C46.0707 13.324 45.8653 13.2073 45.66 13.086C45.4547 12.9647 45.2587 12.8293 45.072 12.68C44.8947 12.5307 44.7267 12.3627 44.568 12.176C44.4187 11.9893 44.2927 11.7933 44.19 11.588C44.0873 11.3733 44.008 11.154 43.952 10.93C43.896 10.6967 43.868 10.4587 43.868 10.216C43.868 9.98267 43.8913 9.754 43.938 9.53C43.994 9.29667 44.0733 9.07733 44.176 8.872C44.288 8.65733 44.428 8.466 44.596 8.298C44.764 8.13 44.9507 7.99467 45.156 7.892C45.3613 7.78 45.5807 7.70533 45.814 7.668C46.0473 7.62133 46.2807 7.598 46.514 7.598C46.7473 7.598 46.976 7.62133 47.2 7.668C47.4333 7.70533 47.6527 7.77533 47.858 7.878C48.0727 7.98067 48.264 8.116 48.432 8.284C48.6 8.44267 48.7353 8.62467 48.838 8.83C48.95 9.03533 49.0293 9.25467 49.076 9.488C49.132 9.712 49.16 9.936 49.16 10.16V10.286H47.9V10.216C47.9 10.02 47.872 9.82867 47.816 9.642C47.76 9.45533 47.6667 9.292 47.536 9.152C47.4147 9.00267 47.2607 8.89533 47.074 8.83C46.8967 8.75533 46.71 8.718 46.514 8.718C46.318 8.718 46.1267 8.75533 45.94 8.83C45.7627 8.89533 45.6087 9.00267 45.478 9.152C45.3567 9.292 45.268 9.46 45.212 9.656C45.156 9.84267 45.128 10.034 45.128 10.23C45.128 10.4633 45.1747 10.692 45.268 10.916C45.3613 11.14 45.4873 11.336 45.646 11.504C45.814 11.672 46.0007 11.8167 46.206 11.938C46.4113 12.0593 46.6167 12.176 46.822 12.288C47.0367 12.3907 47.2467 12.5027 47.452 12.624C47.6573 12.7453 47.8487 12.8807 48.026 13.03C48.2127 13.1793 48.3807 13.3473 48.53 13.534C48.6793 13.7113 48.8053 13.9073 48.908 14.122C49.02 14.3273 49.104 14.5467 49.16 14.78C49.216 15.0133 49.244 15.2467 49.244 15.48C49.244 15.7227 49.216 15.9607 49.16 16.194C49.104 16.4273 49.02 16.6513 48.908 16.866C48.796 17.0713 48.6513 17.258 48.474 17.426C48.2967 17.594 48.1007 17.7293 47.886 17.832C47.6713 17.9347 47.4427 18.0047 47.2 18.042C46.9667 18.0887 46.7287 18.112 46.486 18.112ZM52.912 18.112C52.632 18.112 52.352 18.0747 52.072 18C51.792 17.916 51.5493 17.7807 51.344 17.594C51.1387 17.398 50.9893 17.1647 50.896 16.894C50.8027 16.614 50.756 16.334 50.756 16.054C50.756 15.8113 50.784 15.5733 50.84 15.34C50.9053 15.0973 51.008 14.878 51.148 14.682C51.2973 14.486 51.4747 14.3227 51.68 14.192C51.8853 14.052 52.1 13.9447 52.324 13.87C52.5573 13.786 52.7953 13.73 53.038 13.702C53.2807 13.674 53.5233 13.66 53.766 13.66H54.872V13.03C54.872 12.8433 54.8393 12.666 54.774 12.498C54.718 12.3207 54.62 12.1713 54.48 12.05C54.3493 11.9287 54.1953 11.8447 54.018 11.798C53.8407 11.7513 53.6633 11.728 53.486 11.728C53.318 11.728 53.1547 11.7467 52.996 11.784C52.8373 11.812 52.688 11.8727 52.548 11.966C52.4173 12.05 52.31 12.1667 52.226 12.316C52.142 12.456 52.1 12.6053 52.1 12.764V12.806H50.84V12.736C50.84 12.5213 50.8727 12.3113 50.938 12.106C51.0033 11.9007 51.0967 11.714 51.218 11.546C51.3393 11.3687 51.4887 11.2193 51.666 11.098C51.8433 10.9767 52.03 10.8787 52.226 10.804C52.4313 10.7293 52.6367 10.678 52.842 10.65C53.0567 10.622 53.2713 10.608 53.486 10.608C53.71 10.608 53.934 10.6267 54.158 10.664C54.3913 10.692 54.6107 10.7527 54.816 10.846C55.0213 10.93 55.2127 11.0467 55.39 11.196C55.5673 11.3453 55.712 11.518 55.824 11.714C55.936 11.91 56.0153 12.12 56.062 12.344C56.1087 12.568 56.132 12.7967 56.132 13.03V18H54.872V16.81C54.7973 17.006 54.6947 17.1927 54.564 17.37C54.4333 17.538 54.2793 17.6827 54.102 17.804C53.934 17.916 53.7473 17.9953 53.542 18.042C53.3367 18.0887 53.1267 18.112 52.912 18.112ZM53.43 16.992C53.6353 16.992 53.8313 16.9593 54.018 16.894C54.214 16.8287 54.3773 16.726 54.508 16.586C54.648 16.4367 54.7413 16.264 54.788 16.068C54.844 15.872 54.872 15.676 54.872 15.48V14.78H53.766C53.6353 14.78 53.5047 14.7893 53.374 14.808C53.2433 14.8173 53.1127 14.8407 52.982 14.878C52.8607 14.906 52.7393 14.948 52.618 15.004C52.4967 15.06 52.3893 15.1347 52.296 15.228C52.2027 15.312 52.1327 15.4193 52.086 15.55C52.0393 15.6713 52.016 15.7973 52.016 15.928C52.016 16.096 52.0533 16.2547 52.128 16.404C52.212 16.5533 52.324 16.6747 52.464 16.768C52.6133 16.852 52.772 16.9127 52.94 16.95C53.108 16.978 53.2713 16.992 53.43 16.992ZM61.256 18H60.668C60.4907 18 60.3133 17.986 60.136 17.958C59.968 17.93 59.8047 17.8787 59.646 17.804C59.4873 17.72 59.3427 17.6173 59.212 17.496C59.0907 17.3653 58.988 17.2207 58.904 17.062C58.8293 16.9033 58.778 16.7353 58.75 16.558C58.722 16.3807 58.708 16.208 58.708 16.04V8.83H57.7V7.71H59.968V16.04C59.968 16.1427 59.9773 16.2453 59.996 16.348C60.0147 16.4507 60.0567 16.544 60.122 16.628C60.1873 16.712 60.2667 16.7773 60.36 16.824C60.4627 16.8613 60.5653 16.88 60.668 16.88H61.256V18ZM64.6441 18.112C64.4201 18.112 64.1961 18.0747 63.9721 18C63.7574 17.9347 63.5614 17.8273 63.3841 17.678C63.2161 17.5287 63.0761 17.356 62.9641 17.16C62.8521 16.964 62.7634 16.7587 62.6981 16.544C62.6328 16.32 62.5861 16.096 62.5581 15.872C62.5394 15.648 62.5301 15.424 62.5301 15.2V10.72H63.7901V15.2C63.7901 15.34 63.7948 15.4847 63.8041 15.634C63.8228 15.774 63.8554 15.914 63.9021 16.054C63.9488 16.1847 64.0094 16.3107 64.0841 16.432C64.1588 16.5533 64.2521 16.6607 64.3641 16.754C64.4761 16.838 64.6021 16.8987 64.7421 16.936C64.8821 16.9733 65.0221 16.992 65.1621 16.992C65.3021 16.992 65.4421 16.9733 65.5821 16.936C65.7221 16.8987 65.8481 16.838 65.9601 16.754C66.0721 16.6607 66.1654 16.5533 66.2401 16.432C66.3148 16.3107 66.3754 16.1847 66.4221 16.054C66.4688 15.914 66.4968 15.774 66.5061 15.634C66.5248 15.4847 66.5341 15.34 66.5341 15.2V10.72H67.7941V16.684C67.7941 16.7307 67.7988 16.7727 67.8081 16.81C67.8268 16.8473 67.8501 16.88 67.8781 16.908C67.9061 16.936 67.9388 16.9593 67.9761 16.978C68.0134 16.9873 68.0554 16.992 68.1021 16.992H68.3961V18.112H68.1021C67.8968 18.112 67.6961 18.084 67.5001 18.028C67.3041 17.9813 67.1268 17.8927 66.9681 17.762C66.8188 17.6313 66.7068 17.4727 66.6321 17.286C66.5668 17.09 66.5341 16.894 66.5341 16.698C66.4688 16.894 66.3754 17.0853 66.2541 17.272C66.1421 17.4493 66.0021 17.6033 65.8341 17.734C65.6661 17.8647 65.4794 17.958 65.2741 18.014C65.0688 18.0793 64.8588 18.112 64.6441 18.112ZM71.5881 18.112C71.3548 18.112 71.1261 18.0793 70.9021 18.014C70.6874 17.9487 70.4914 17.8413 70.3141 17.692C70.1368 17.5427 69.9874 17.37 69.8661 17.174C69.7541 16.978 69.6608 16.7727 69.5861 16.558C69.5208 16.334 69.4741 16.11 69.4461 15.886C69.4274 15.6527 69.4181 15.424 69.4181 15.2V13.52C69.4181 13.296 69.4274 13.072 69.4461 12.848C69.4741 12.6147 69.5208 12.3907 69.5861 12.176C69.6608 11.952 69.7541 11.742 69.8661 11.546C69.9874 11.35 70.1368 11.1773 70.3141 11.028C70.4914 10.8787 70.6874 10.7713 70.9021 10.706C71.1261 10.6407 71.3548 10.608 71.5881 10.608C71.8028 10.608 72.0174 10.6407 72.2321 10.706C72.4468 10.762 72.6381 10.8553 72.8061 10.986C72.9741 11.1167 73.1188 11.2753 73.2401 11.462C73.3614 11.6393 73.4594 11.8307 73.5341 12.036V7.71H74.7941V16.684C74.7941 16.7307 74.7988 16.7727 74.8081 16.81C74.8268 16.8473 74.8501 16.88 74.8781 16.908C74.9061 16.936 74.9388 16.9593 74.9761 16.978C75.0134 16.9873 75.0554 16.992 75.1021 16.992H75.3961V18.112H75.1021C74.8968 18.112 74.6961 18.084 74.5001 18.028C74.3041 17.9813 74.1268 17.8927 73.9681 17.762C73.8188 17.6313 73.7068 17.4727 73.6321 17.286C73.5668 17.09 73.5341 16.8893 73.5341 16.684C73.4594 16.8893 73.3614 17.0853 73.2401 17.272C73.1188 17.4493 72.9741 17.6033 72.8061 17.734C72.6381 17.8647 72.4468 17.958 72.2321 18.014C72.0174 18.0793 71.8028 18.112 71.5881 18.112ZM72.1061 16.992C72.2461 16.992 72.3861 16.9733 72.5261 16.936C72.6754 16.8987 72.8061 16.838 72.9181 16.754C73.0394 16.67 73.1374 16.5673 73.2121 16.446C73.2961 16.3247 73.3614 16.194 73.4081 16.054C73.4548 15.914 73.4874 15.774 73.5061 15.634C73.5248 15.4847 73.5341 15.34 73.5341 15.2V13.52C73.5341 13.38 73.5248 13.24 73.5061 13.1C73.4874 12.9507 73.4548 12.806 73.4081 12.666C73.3614 12.526 73.2961 12.3953 73.2121 12.274C73.1374 12.1527 73.0394 12.05 72.9181 11.966C72.8061 11.882 72.6754 11.8213 72.5261 11.784C72.3861 11.7467 72.2461 11.728 72.1061 11.728C71.9661 11.728 71.8214 11.7467 71.6721 11.784C71.5321 11.8213 71.4014 11.882 71.2801 11.966C71.1681 12.05 71.0701 12.1527 70.9861 12.274C70.9114 12.3953 70.8508 12.526 70.8041 12.666C70.7574 12.806 70.7248 12.9507 70.7061 13.1C70.6874 13.24 70.6781 13.38 70.6781 13.52V15.2C70.6781 15.34 70.6874 15.4847 70.7061 15.634C70.7248 15.774 70.7574 15.914 70.8041 16.054C70.8508 16.194 70.9114 16.3247 70.9861 16.446C71.0701 16.5673 71.1681 16.67 71.2801 16.754C71.4014 16.838 71.5321 16.8987 71.6721 16.936C71.8214 16.9733 71.9661 16.992 72.1061 16.992ZM78.5741 18.112C78.2941 18.112 78.0141 18.0747 77.7341 18C77.4541 17.916 77.2114 17.7807 77.0061 17.594C76.8008 17.398 76.6514 17.1647 76.5581 16.894C76.4648 16.614 76.4181 16.334 76.4181 16.054C76.4181 15.8113 76.4461 15.5733 76.5021 15.34C76.5674 15.0973 76.6701 14.878 76.8101 14.682C76.9594 14.486 77.1368 14.3227 77.3421 14.192C77.5474 14.052 77.7621 13.9447 77.9861 13.87C78.2194 13.786 78.4574 13.73 78.7001 13.702C78.9428 13.674 79.1854 13.66 79.4281 13.66H80.5341V13.03C80.5341 12.8433 80.5014 12.666 80.4361 12.498C80.3801 12.3207 80.2821 12.1713 80.1421 12.05C80.0114 11.9287 79.8574 11.8447 79.6801 11.798C79.5028 11.7513 79.3254 11.728 79.1481 11.728C78.9801 11.728 78.8168 11.7467 78.6581 11.784C78.4994 11.812 78.3501 11.8727 78.2101 11.966C78.0794 12.05 77.9721 12.1667 77.8881 12.316C77.8041 12.456 77.7621 12.6053 77.7621 12.764V12.806H76.5021V12.736C76.5021 12.5213 76.5348 12.3113 76.6001 12.106C76.6654 11.9007 76.7588 11.714 76.8801 11.546C77.0014 11.3687 77.1508 11.2193 77.3281 11.098C77.5054 10.9767 77.6921 10.8787 77.8881 10.804C78.0934 10.7293 78.2988 10.678 78.5041 10.65C78.7188 10.622 78.9334 10.608 79.1481 10.608C79.3721 10.608 79.5961 10.6267 79.8201 10.664C80.0534 10.692 80.2728 10.7527 80.4781 10.846C80.6834 10.93 80.8748 11.0467 81.0521 11.196C81.2294 11.3453 81.3741 11.518 81.4861 11.714C81.5981 11.91 81.6774 12.12 81.7241 12.344C81.7708 12.568 81.7941 12.7967 81.7941 13.03V18H80.5341V16.81C80.4594 17.006 80.3568 17.1927 80.2261 17.37C80.0954 17.538 79.9414 17.6827 79.7641 17.804C79.5961 17.916 79.4094 17.9953 79.2041 18.042C78.9988 18.0887 78.7888 18.112 78.5741 18.112ZM79.0921 16.992C79.2974 16.992 79.4934 16.9593 79.6801 16.894C79.8761 16.8287 80.0394 16.726 80.1701 16.586C80.3101 16.4367 80.4034 16.264 80.4501 16.068C80.5061 15.872 80.5341 15.676 80.5341 15.48V14.78H79.4281C79.2974 14.78 79.1668 14.7893 79.0361 14.808C78.9054 14.8173 78.7748 14.8407 78.6441 14.878C78.5228 14.906 78.4014 14.948 78.2801 15.004C78.1588 15.06 78.0514 15.1347 77.9581 15.228C77.8648 15.312 77.7948 15.4193 77.7481 15.55C77.7014 15.6713 77.6781 15.7973 77.6781 15.928C77.6781 16.096 77.7154 16.2547 77.7901 16.404C77.8741 16.5533 77.9861 16.6747 78.1261 16.768C78.2754 16.852 78.4341 16.9127 78.6021 16.95C78.7701 16.978 78.9334 16.992 79.0921 16.992ZM86.7361 18.112C86.5214 18.112 86.3068 18.0793 86.0921 18.014C85.8774 17.958 85.6861 17.8647 85.5181 17.734C85.3501 17.6033 85.2054 17.4493 85.0841 17.272C84.9628 17.0853 84.8648 16.8893 84.7901 16.684V18H83.5301V7.71H84.7901V12.036C84.8648 11.8307 84.9628 11.6393 85.0841 11.462C85.2054 11.2753 85.3501 11.1167 85.5181 10.986C85.6861 10.8553 85.8774 10.762 86.0921 10.706C86.3068 10.6407 86.5214 10.608 86.7361 10.608C86.9694 10.608 87.1934 10.6407 87.4081 10.706C87.6321 10.7713 87.8328 10.8787 88.0101 11.028C88.1874 11.1773 88.3321 11.35 88.4441 11.546C88.5654 11.742 88.6588 11.952 88.7241 12.176C88.7988 12.3907 88.8454 12.6147 88.8641 12.848C88.8921 13.072 88.9061 13.296 88.9061 13.52V15.2C88.9061 15.424 88.8921 15.6527 88.8641 15.886C88.8454 16.11 88.7988 16.334 88.7241 16.558C88.6588 16.7727 88.5654 16.978 88.4441 17.174C88.3321 17.37 88.1874 17.5427 88.0101 17.692C87.8328 17.8413 87.6321 17.9487 87.4081 18.014C87.1934 18.0793 86.9694 18.112 86.7361 18.112ZM86.2181 16.992C86.3581 16.992 86.4981 16.9733 86.6381 16.936C86.7874 16.8987 86.9181 16.838 87.0301 16.754C87.1514 16.67 87.2494 16.5673 87.3241 16.446C87.4081 16.3247 87.4734 16.194 87.5201 16.054C87.5668 15.914 87.5994 15.774 87.6181 15.634C87.6368 15.4847 87.6461 15.34 87.6461 15.2V13.52C87.6461 13.38 87.6368 13.24 87.6181 13.1C87.5994 12.9507 87.5668 12.806 87.5201 12.666C87.4734 12.526 87.4081 12.3953 87.3241 12.274C87.2494 12.1527 87.1514 12.05 87.0301 11.966C86.9181 11.882 86.7874 11.8213 86.6381 11.784C86.4981 11.7467 86.3581 11.728 86.2181 11.728C86.0781 11.728 85.9334 11.7467 85.7841 11.784C85.6441 11.8213 85.5134 11.882 85.3921 11.966C85.2801 12.05 85.1821 12.1527 85.0981 12.274C85.0234 12.3953 84.9628 12.526 84.9161 12.666C84.8694 12.806 84.8368 12.9507 84.8181 13.1C84.7994 13.24 84.7901 13.38 84.7901 13.52V15.2C84.7901 15.34 84.7994 15.4847 84.8181 15.634C84.8368 15.774 84.8694 15.914 84.9161 16.054C84.9628 16.194 85.0234 16.3247 85.0981 16.446C85.1821 16.5673 85.2801 16.67 85.3921 16.754C85.5134 16.838 85.6441 16.8987 85.7841 16.936C85.9334 16.9733 86.0781 16.992 86.2181 16.992ZM93.9181 18H93.3301C93.1528 18 92.9754 17.986 92.7981 17.958C92.6301 17.93 92.4668 17.8787 92.3081 17.804C92.1494 17.72 92.0048 17.6173 91.8741 17.496C91.7528 17.3653 91.6501 17.2207 91.5661 17.062C91.4914 16.9033 91.4401 16.7353 91.4121 16.558C91.3841 16.3807 91.3701 16.208 91.3701 16.04V8.83H90.3621V7.71H92.6301V16.04C92.6301 16.1427 92.6394 16.2453 92.6581 16.348C92.6768 16.4507 92.7188 16.544 92.7841 16.628C92.8494 16.712 92.9288 16.7773 93.0221 16.824C93.1248 16.8613 93.2274 16.88 93.3301 16.88H93.9181V18ZM97.8242 18.112C97.5722 18.112 97.3202 18.0887 97.0682 18.042C96.8162 17.9953 96.5782 17.9113 96.3542 17.79C96.1396 17.6593 95.9436 17.5007 95.7662 17.314C95.5982 17.118 95.4582 16.908 95.3462 16.684C95.2436 16.4507 95.1736 16.208 95.1362 15.956C95.0989 15.704 95.0802 15.452 95.0802 15.2V13.52C95.0802 13.268 95.0989 13.016 95.1362 12.764C95.1829 12.512 95.2576 12.274 95.3602 12.05C95.4629 11.8167 95.5982 11.6067 95.7662 11.42C95.9436 11.224 96.1442 11.0653 96.3682 10.944C96.5922 10.8133 96.8256 10.7247 97.0682 10.678C97.3202 10.6313 97.5769 10.608 97.8382 10.608C98.0622 10.608 98.2862 10.622 98.5102 10.65C98.7342 10.678 98.9489 10.734 99.1542 10.818C99.3689 10.8927 99.5649 11 99.7422 11.14C99.9289 11.2707 100.083 11.4293 100.204 11.616C100.335 11.8027 100.428 12.008 100.484 12.232C100.54 12.4467 100.568 12.666 100.568 12.89C100.568 13.114 100.54 13.338 100.484 13.562C100.428 13.786 100.33 13.9867 100.19 14.164C100.06 14.3413 99.8962 14.4953 99.7002 14.626C99.5136 14.7473 99.3129 14.8453 99.0982 14.92C98.8836 14.9853 98.6642 15.032 98.4402 15.06C98.2256 15.088 98.0016 15.102 97.7682 15.102H96.3402V15.2C96.3402 15.424 96.3636 15.6433 96.4102 15.858C96.4569 16.0727 96.5456 16.2733 96.6762 16.46C96.8069 16.6373 96.9749 16.7727 97.1802 16.866C97.3856 16.95 97.6002 16.992 97.8242 16.992C97.9922 16.992 98.1602 16.978 98.3282 16.95C98.4962 16.9127 98.6502 16.852 98.7902 16.768C98.9396 16.6747 99.0562 16.5533 99.1402 16.404C99.2336 16.2547 99.2802 16.0913 99.2802 15.914H100.54C100.54 16.138 100.503 16.3573 100.428 16.572C100.363 16.7773 100.265 16.9687 100.134 17.146C100.013 17.3233 99.8636 17.4773 99.6862 17.608C99.5089 17.7387 99.3176 17.8413 99.1122 17.916C98.9069 17.9907 98.6922 18.042 98.4682 18.07C98.2536 18.098 98.0389 18.112 97.8242 18.112ZM96.3402 13.982H97.7682C97.8896 13.982 98.0109 13.9773 98.1322 13.968C98.2536 13.9587 98.3702 13.9353 98.4822 13.898C98.5942 13.8607 98.7016 13.814 98.8042 13.758C98.9069 13.702 98.9956 13.632 99.0702 13.548C99.1542 13.4547 99.2149 13.352 99.2522 13.24C99.2896 13.128 99.3082 13.0113 99.3082 12.89C99.3082 12.7127 99.2662 12.5447 99.1822 12.386C99.1076 12.218 98.9956 12.0873 98.8462 11.994C98.6969 11.8913 98.5336 11.8213 98.3562 11.784C98.1882 11.7467 98.0156 11.728 97.8382 11.728C97.6142 11.728 97.3949 11.7747 97.1802 11.868C96.9749 11.952 96.8069 12.0827 96.6762 12.26C96.5456 12.4373 96.4569 12.638 96.4102 12.862C96.3636 13.0767 96.3402 13.296 96.3402 13.52V13.982Z" fill="#1F6F5F"/>
</svg>
