<svg width="30" height="30" viewBox="0 0 30 30" fill="none" xmlns="http://www.w3.org/2000/svg">
<path d="M29.6406 27.8656L27.4531 25.6781C27.2281 23.7531 25.9156 22.1656 24.1406 21.5531C24.7031 20.2906 25.0031 18.9156 25.0031 17.5031C25.0031 17.1406 24.9531 16.7156 24.8781 16.2531H27.5031C28.1906 16.2531 28.7531 15.6906 28.7531 15.0031C28.7531 14.3156 28.1906 13.7531 27.5031 13.7531H24.2781C23.9031 12.4781 23.4531 11.1406 23.0406 10.0031H23.7531C26.5156 10.0031 28.7531 7.76562 28.7531 5.00313V3.75313C28.7531 3.06562 28.1906 2.50313 27.5031 2.50313C26.8156 2.50313 26.2531 3.06562 26.2531 3.75313V5.00313C26.2531 6.37813 25.1281 7.50313 23.7531 7.50313H22.0781C21.9531 7.20312 21.8781 7.01562 21.8781 7.00313C20.6781 4.26562 17.9906 2.50313 15.0031 2.50313C12.2031 2.50313 9.66562 4.07812 8.35312 6.59062L2.14062 0.365625C1.65313 -0.121875 0.853125 -0.121875 0.365625 0.365625C-0.121875 0.853125 -0.121875 1.65313 0.365625 2.14062L27.8656 29.6406C28.1156 29.8906 28.4281 30.0031 28.7531 30.0031C29.0781 30.0031 29.3906 29.8781 29.6406 29.6406C30.1281 29.1531 30.1281 28.3656 29.6406 27.8781V27.8656ZM10.4156 8.00313C11.2156 6.17813 13.0156 5.00313 15.0031 5.00313C16.9906 5.00313 18.7906 6.17813 19.5906 8.00313C20.1031 9.17813 22.5031 15.4156 22.5031 17.5031C22.5031 18.4406 22.3156 19.3531 21.9781 20.2156L10.2281 8.45312C10.3031 8.27813 10.3656 8.12813 10.4281 8.00313H10.4156Z" fill="#EDEDED"/>
<path d="M19.8779 24.8781C19.5779 24.2531 18.8404 23.9906 18.2154 24.2906C17.2029 24.7656 16.1279 25.0156 15.0029 25.0156C10.8654 25.0156 7.50293 21.6531 7.50293 17.5156C7.50293 17.1531 7.59043 16.2156 8.22793 14.1281C8.42793 13.4656 8.05293 12.7656 7.39043 12.5656C6.72793 12.3656 6.02793 12.7406 5.82793 13.4031C5.79043 13.5281 5.76543 13.6406 5.72793 13.7656H2.50293C1.81543 13.7656 1.25293 14.3281 1.25293 15.0156C1.25293 15.7031 1.81543 16.2656 2.50293 16.2656H5.12793C5.05293 16.7406 5.00293 17.1656 5.00293 17.5156C5.00293 18.9531 5.31543 20.3281 5.86543 21.5656C3.91543 22.2531 2.50293 24.0906 2.50293 26.2656V27.5156C2.50293 28.2031 3.06543 28.7656 3.75293 28.7656C4.44043 28.7656 5.00293 28.2031 5.00293 27.5156V26.2656C5.00293 24.9781 5.97793 23.9281 7.22793 23.7906C9.06543 26.0531 11.8654 27.5156 15.0029 27.5156C16.5029 27.5156 17.9404 27.1906 19.2904 26.5531C19.9154 26.2531 20.1779 25.5156 19.8779 24.8906V24.8781Z" fill="#EDEDED"/>
</svg>
