<svg width="150" height="150" viewBox="0 0 150 150" fill="none" xmlns="http://www.w3.org/2000/svg">
<circle cx="75" cy="75" r="38" fill="#C2DDD7"/>
<g clip-path="url(#clip0_330_2)">
<path d="M88.8088 81.4963L83.4113 86.415C80.8725 88.7275 77.5838 90 74.1513 90H61.25C60.5588 90 60 89.4412 60 88.75C60 88.0587 60.5588 87.5 61.25 87.5H74.15C76.9588 87.5 79.6488 86.4587 81.7263 84.5662L87.0813 79.6888C87.515 79.2537 87.6188 78.5088 87.2763 78.0338C87.0513 77.7225 86.7238 77.535 86.3513 77.5037C85.9875 77.48 85.6263 77.6063 85.3663 77.8663L80.0738 82.7238C79.4013 83.3587 78.4963 83.75 77.5 83.75H71.25C70.5588 83.75 70 83.1912 70 82.5C70 81.8087 70.5588 81.25 71.25 81.25H77.5C77.815 81.25 78.75 81.1062 78.75 80C78.75 79.31 78.19 78.75 77.5 78.75H71.36C68.3563 78.75 65.53 79.9212 63.405 82.045L62.1575 83.3612C61.9113 83.62 61.5813 83.7512 61.25 83.7512C60.9413 83.7512 60.6313 83.6375 60.39 83.4087C59.89 82.9325 59.8688 82.1412 60.3438 81.6412L61.615 80.3025C64.2363 77.6825 67.6888 76.2525 71.3613 76.2525H77.5013C79.0463 76.2525 80.3763 77.1925 80.95 78.53L83.6388 76.0625C84.3775 75.3213 85.4588 74.9187 86.5525 75.0138C87.6525 75.1012 88.6563 75.67 89.3063 76.5737C90.3613 78.0413 90.1475 80.1562 88.81 81.4975L88.8088 81.4963ZM65.0075 62.7025C64.955 61.9762 65.2225 61.2612 65.7425 60.7425C66.2613 60.2225 66.9763 59.95 67.7038 60.0075C71.3 60.2612 73.685 61.5012 75 63.8975C76.3163 61.5012 78.7 60.2612 82.2975 60.0075C83.0363 59.9475 83.74 60.2225 84.2575 60.7425C84.7775 61.2612 85.045 61.9763 84.9925 62.7038C84.6038 68.22 81.8925 70.885 76.25 71.2137V72.4987C76.25 73.19 75.6913 73.7487 75 73.7487C74.3088 73.7487 73.75 73.19 73.75 72.4987V71.2137C68.1075 70.8837 65.3963 68.22 65.0075 62.7025ZM76.29 68.71C80.4913 68.43 82.2075 66.6638 82.5 62.5275C78.3388 62.795 76.57 64.5087 76.29 68.71ZM67.5263 62.5C67.7938 66.6613 69.5075 68.43 73.7088 68.71C73.4288 64.5087 71.6625 62.7925 67.5263 62.5Z" fill="#1F6F5F"/>
</g>
<path d="M75 9.99645C75 4.47556 79.4951 -0.0685344 84.967 0.665162C96.6986 2.23817 107.941 6.57325 117.745 13.3731C130.299 22.0804 139.894 34.4139 145.246 48.7233C150.599 63.0327 151.454 78.6356 147.697 93.4442C143.94 108.253 135.75 121.561 124.222 131.588C112.695 141.614 98.3809 147.882 83.1946 149.551C68.0083 151.22 52.6743 148.212 39.2445 140.928C25.8146 133.645 14.9294 122.434 8.04534 108.795C2.66932 98.1435 -0.0663451 86.4086 0.00115248 74.5723C0.0326353 69.0515 5.15568 65.2292 10.6233 65.9941C16.091 66.759 19.8072 71.8346 20.0431 77.3504C20.3755 85.122 22.3545 92.7741 25.8936 99.7859C30.9426 109.789 38.9261 118.012 48.7759 123.354C58.6257 128.696 69.8721 130.902 81.0101 129.678C92.1482 128.453 102.647 123.857 111.101 116.503C119.555 109.149 125.562 99.3885 128.318 88.5275C131.073 77.6664 130.446 66.2229 126.521 55.7279C122.595 45.233 115.557 36.1873 106.35 29.8011C99.8965 25.3247 92.5923 22.3047 84.9417 20.8987C79.5118 19.9009 75 15.5173 75 9.99645Z" fill="#2FA084"/>
<defs>
<clipPath id="clip0_330_2">
<rect width="30" height="30" fill="white" transform="translate(60 60)"/>
</clipPath>
</defs>
</svg>
