<svg width="40" height="40" viewBox="0 0 40 40" fill="none" xmlns="http://www.w3.org/2000/svg">
<rect width="40" height="40" rx="8" fill="#C2DDD7"/>
<path d="M27.7675 16.3725C28.2513 16.865 28.2438 17.6562 27.75 18.14L22.2175 23.5713C21.2388 24.5312 19.9788 25.01 18.7175 25.01C17.47 25.01 16.2225 24.54 15.2475 23.5987L12.8737 21.265C12.3812 20.7812 12.375 19.99 12.8588 19.4975C13.3413 19.0037 14.135 18.9975 14.6263 19.4825L16.9925 21.8088C17.9625 22.7463 19.4937 22.7412 20.4688 21.7862L26 16.3562C26.4912 15.8713 27.28 15.88 27.7675 16.3725ZM35 20C35 28.2712 28.2712 35 20 35C11.7287 35 5 28.2712 5 20C5 11.7287 11.7287 5 20 5C28.2712 5 35 11.7287 35 20ZM32.5 20C32.5 13.1075 26.8925 7.5 20 7.5C13.1075 7.5 7.5 13.1075 7.5 20C7.5 26.8925 13.1075 32.5 20 32.5C26.8925 32.5 32.5 26.8925 32.5 20Z" fill="#1F6F5F"/>
</svg>
