<svg width="40" height="40" viewBox="0 0 40 40" fill="none" xmlns="http://www.w3.org/2000/svg">
<rect width="40" height="40" rx="8" fill="#FEE2E2"/>
<g clip-path="url(#clip0_343_18)">
<path d="M33.1701 15.5751L24.4213 6.8238C23.2401 5.6438 21.6713 4.99255 20.0013 4.99255C18.3313 4.99255 16.7613 5.6438 15.5813 6.8238L6.83256 15.5751C4.39631 18.0113 4.39631 21.9751 6.83256 24.4113L15.5813 33.1626C16.7613 34.3426 18.3313 34.9938 20.0013 34.9938C21.6713 34.9938 23.2401 34.3426 24.4213 33.1626L33.1701 24.4113C34.3501 23.2313 35.0001 21.6626 35.0001 19.9938C35.0001 18.3251 34.3501 16.7551 33.1701 15.5751ZM31.4026 22.6438L22.6538 31.3951C21.2363 32.8113 18.7663 32.8113 17.3488 31.3951L8.60006 22.6438C7.13881 21.1826 7.13881 18.8038 8.60006 17.3426L17.3488 8.5913C18.0576 7.8838 18.9988 7.49255 20.0013 7.49255C21.0038 7.49255 21.9451 7.88255 22.6538 8.5913L31.4026 17.3426C32.1101 18.0501 32.5001 18.9913 32.5001 19.9938C32.5001 20.9963 32.1101 21.9363 31.4026 22.6438ZM21.8751 25.6251C21.8751 26.6601 21.0351 27.5001 20.0001 27.5001C18.9651 27.5001 18.1251 26.6601 18.1251 25.6251C18.1251 24.5901 18.9651 23.7501 20.0001 23.7501C21.0351 23.7501 21.8751 24.5901 21.8751 25.6251ZM18.7501 20.6251V13.7501C18.7501 13.0588 19.3101 12.5001 20.0001 12.5001C20.6901 12.5001 21.2501 13.0588 21.2501 13.7501V20.6251C21.2501 21.3163 20.6901 21.8751 20.0001 21.8751C19.3101 21.8751 18.7501 21.3163 18.7501 20.6251Z" fill="#DC2626"/>
</g>
<defs>
<clipPath id="clip0_343_18">
<rect width="30" height="30" fill="white" transform="translate(5 5)"/>
</clipPath>
</defs>
</svg>
