<?xml version="1.0" encoding="UTF-8"?>
<svg id="Capa_2" data-name="Capa 2" xmlns="http://www.w3.org/2000/svg" xmlns:xlink="http://www.w3.org/1999/xlink" viewBox="0 0 488.92 283.41">
  <defs>
    <style>
      .cls-1 {
        stroke-linecap: square;
        stroke-width: 4px;
      }

      .cls-1, .cls-2 {
        stroke: #1f6f5f;
      }

      .cls-1, .cls-2, .cls-3 {
        stroke-miterlimit: 10;
      }

      .cls-1, .cls-2, .cls-4 {
        fill: none;
      }

      .cls-5 {
        fill: #6fcf97;
      }

      .cls-2 {
        stroke-width: 9px;
      }

      .cls-6, .cls-7 {
        fill: #1f6f5f;
      }

      .cls-7 {
        font-family: Cambria-Bold, Cambria;
        font-size: 111px;
      }

      .cls-3 {
        fill: #9bbd45;
        stroke: #6fcf97;
        stroke-linecap: round;
        stroke-width: 8px;
      }

      .cls-8 {
        clip-path: url(#clippath);
      }

      .cls-9 {
        letter-spacing: 0em;
      }

      .cls-10 {
        letter-spacing: -.01em;
      }

      .cls-11 {
        fill: #2fa084;
      }
    </style>
    <clipPath id="clippath">
      <path class="cls-4" d="M410.13,163.02c-2.15-1.18-4.15-2.62-5.94-4.28,4.11-4.49,10.95-10.85,20.92-15.98,12.07-6.22,23.16-7.76,29.7-8.17,.04,.64,.06,1.29,.06,1.94,0,16.68-13.52,30.21-30.21,30.21-5.27,0-10.22-1.35-14.53-3.72Z"/>
    </clipPath>
  </defs>
  <g id="variacion4">
    <g>
      <path class="cls-6" d="M394.72,133.31c.09-.84,.22-1.66,.38-2.48,4.83,3.78,11.28,9.77,16.93,18.54,4.01,6.23,6.53,12.17,8.14,17.02-14.5-2.17-25.62-14.68-25.62-29.79,0-1.11,.06-2.21,.18-3.3Z"/>
      <line class="cls-3" x1="425.09" y1="132.94" x2="425.09" y2="143.59"/>
      <path class="cls-5" d="M453.03,113.16s-5.61-2.24-14.02-.51c-8.41,1.73-12.44,9.53-12.44,9.53,0,0-1.95,4.43-1.92,8.41,.03,3.98,.43,3.99,.43,3.99,0,0,4.04,.55,9.44,.3,5.4-.25,11.84-3.6,15.6-10.7,3.57-6.74,2.91-11.01,2.91-11.01Z"/>
      <path class="cls-5" d="M399.97,117.7s7.85-.61,14.02,2.7c6.17,3.31,10.8,13.06,10.8,13.06,0,0-8.05,1.42-15.03-.16-6.98-1.58-10.35-8.36-9.79-15.6Z"/>
      <g class="cls-8">
        <path class="cls-11" d="M410.13,163.02c-2.15-1.18-4.15-2.62-5.94-4.28,4.11-4.49,10.95-10.85,20.92-15.98,12.07-6.22,23.16-7.76,29.7-8.17,.04,.64,.06,1.29,.06,1.94,0,16.68-13.52,30.21-30.21,30.21-5.27,0-10.22-1.35-14.53-3.72Z"/>
        <path class="cls-1" d="M409.33,161.8s16.9-18.31,45.34-21.82"/>
        <path class="cls-1" d="M417.59,170.63s14.23-21,38.18-25.02"/>
      </g>
    </g>
    <path class="cls-2" d="M4.83,140.12S57.13,5.03,246.11,4.5c188.98-.53,238.04,135.62,238.04,135.62,0,0-47.52,138.98-235.57,138.78C59.84,278.7,4.83,140.12,4.83,140.12Z"/>
    <text class="cls-7" transform="translate(34.95 166.39)"><tspan x="0" y="0">Ag</tspan><tspan class="cls-10" x="130.08" y="0">r</tspan><tspan x="179.67" y="0">o</tspan><tspan class="cls-9" x="242.87" y="0">E</tspan><tspan x="306.44" y="0">c</tspan></text>
  </g>
</svg>