<?xml version="1.0" encoding="UTF-8"?>
<svg id="Capa_2" data-name="Capa 2" xmlns="http://www.w3.org/2000/svg" xmlns:xlink="http://www.w3.org/1999/xlink" viewBox="0 0 216.04 127.18">
  <defs>
    <style>
      .cls-1 {
        fill: #6fcf97;
      }

      .cls-2 {
        stroke-width: 9px;
      }

      .cls-2, .cls-3, .cls-4, .cls-5 {
        fill: none;
      }

      .cls-2, .cls-4, .cls-5 {
        stroke-miterlimit: 10;
      }

      .cls-2, .cls-5 {
        stroke: #1f6f5f;
      }

      .cls-6 {
        fill: #1f6f5f;
      }

      .cls-7 {
        clip-path: url(#clippath);
      }

      .cls-4 {
        stroke: #6fcf97;
        stroke-linecap: round;
        stroke-width: 8px;
      }

      .cls-5 {
        stroke-linecap: square;
        stroke-width: 5px;
      }

      .cls-8 {
        fill: #2fa084;
      }
    </style>
    <clipPath id="clippath">
      <path class="cls-3" d="M84.52,103.4c-3.49-1.92-6.71-4.25-9.62-6.92,6.66-7.26,17.73-17.56,33.87-25.88,19.55-10.07,37.5-12.57,48.09-13.24,.07,1.04,.1,2.09,.1,3.15,0,27.01-21.9,48.91-48.91,48.91-8.53,0-16.55-2.18-23.53-6.02Z"/>
    </clipPath>
  </defs>
  <g id="Capa_4" data-name="Capa 4">
    <path class="cls-6" d="M59.57,55.31c.15-1.35,.35-2.69,.61-4.01,7.82,6.12,18.26,15.82,27.41,30.01,6.5,10.08,10.58,19.7,13.19,27.56-23.48-3.52-41.49-23.77-41.49-48.23,0-1.8,.1-3.58,.29-5.34Z"/>
  </g>
  <g id="Capa_5" data-name="Capa 5">
    <line class="cls-4" x1="108.75" y1="54.71" x2="108.75" y2="71.96"/>
    <path class="cls-1" d="M153.99,22.68s-9.08-3.63-22.7-.83c-13.62,2.81-20.14,15.43-20.14,15.43,0,0-3.16,7.18-3.11,13.62,.06,6.44,.7,6.45,.7,6.45,0,0,6.54,.89,15.29,.48,8.75-.41,19.17-5.83,25.25-17.33,5.78-10.91,4.7-17.83,4.7-17.83Z"/>
    <path class="cls-1" d="M68.08,30.03s12.71-.99,22.7,4.37,17.49,21.14,17.49,21.14c0,0-13.04,2.3-24.34-.26s-16.75-13.54-15.85-25.25Z"/>
  </g>
  <g id="Capa_3" data-name="Capa 3">
    <g class="cls-7">
      <path class="cls-8" d="M84.52,103.4c-3.49-1.92-6.71-4.25-9.62-6.92,6.66-7.26,17.73-17.56,33.87-25.88,19.55-10.07,37.5-12.57,48.09-13.24,.07,1.04,.1,2.09,.1,3.15,0,27.01-21.9,48.91-48.91,48.91-8.53,0-16.55-2.18-23.53-6.02Z"/>
      <path class="cls-5" d="M83.23,101.44s27.36-29.65,73.41-35.33"/>
      <path class="cls-5" d="M96.6,115.74s23.04-34,61.82-40.52"/>
    </g>
  </g>
  <g id="Capa_2-2" data-name="Capa 2">
    <path class="cls-2" d="M4.83,62.91S27.36,4.73,108.75,4.5c81.39-.23,102.52,58.41,102.52,58.41,0,0-20.47,59.86-101.46,59.77C28.52,122.6,4.83,62.91,4.83,62.91Z"/>
  </g>
</svg>