<?xml version="1.0" encoding="UTF-8"?>
<svg id="Capa_2" data-name="Capa 2" xmlns="http://www.w3.org/2000/svg" xmlns:xlink="http://www.w3.org/1999/xlink" viewBox="0 0 256.6 196.81">
  <defs>
    <style>
      .cls-1 {
        fill: #6fcf97;
      }

      .cls-2 {
        stroke-width: 9px;
      }

      .cls-2, .cls-3, .cls-4, .cls-5 {
        fill: none;
      }

      .cls-2, .cls-4, .cls-5 {
        stroke-miterlimit: 10;
      }

      .cls-2, .cls-5 {
        stroke: #1f6f5f;
      }

      .cls-6, .cls-7 {
        fill: #1f6f5f;
      }

      .cls-8 {
        clip-path: url(#clippath);
      }

      .cls-4 {
        stroke: #6fcf97;
        stroke-linecap: round;
        stroke-width: 8px;
      }

      .cls-5 {
        stroke-linecap: square;
        stroke-width: 5px;
      }

      .cls-9 {
        fill: #2fa084;
      }

      .cls-7 {
        font-family: Cambria-Bold, Cambria;
        font-size: 58.96px;
      }
    </style>
    <clipPath id="clippath">
      <path class="cls-3" d="M104.56,173.03c-3.49-1.92-6.71-4.25-9.62-6.92,6.66-7.26,17.73-17.56,33.87-25.88,19.55-10.07,37.5-12.57,48.09-13.24,.07,1.04,.1,2.09,.1,3.15,0,27.01-21.9,48.91-48.91,48.91-8.53,0-16.55-2.18-23.53-6.02Z"/>
    </clipPath>
  </defs>
  <g id="variacion3">
    <text class="cls-7" transform="translate(31.99 88.76) rotate(-36.42)"><tspan x="0" y="0">A</tspan></text>
    <text class="cls-7" transform="translate(61.58 67.11) rotate(-23.79)"><tspan x="0" y="0">g</tspan></text>
    <text class="cls-7" transform="translate(88.15 55.37) rotate(-12.51)"><tspan x="0" y="0">r</tspan></text>
    <text class="cls-7" transform="translate(112.16 49.21) rotate(-.21)"><tspan x="0" y="0">o</tspan></text>
    <text class="cls-7" transform="translate(143.59 48.57) rotate(14.33)"><tspan x="0" y="0">E</tspan></text>
    <text class="cls-7" transform="translate(174.53 56.66) rotate(26.75)"><tspan x="0" y="0">c</tspan></text>
    <text class="cls-7" transform="translate(197.73 67.93) rotate(37.14)"><tspan x="0" y="0">o</tspan></text>
    <path class="cls-6" d="M79.61,124.93c.15-1.35,.35-2.69,.61-4.01,7.82,6.12,18.26,15.82,27.41,30.01,6.5,10.08,10.58,19.7,13.19,27.56-23.48-3.52-41.49-23.77-41.49-48.23,0-1.8,.1-3.58,.29-5.34Z"/>
    <line class="cls-4" x1="128.79" y1="124.33" x2="128.79" y2="141.58"/>
    <path class="cls-1" d="M174.03,92.31s-9.08-3.63-22.7-.83c-13.62,2.81-20.14,15.43-20.14,15.43,0,0-3.16,7.18-3.11,13.62,.06,6.44,.7,6.45,.7,6.45,0,0,6.54,.89,15.29,.48,8.75-.41,19.17-5.83,25.25-17.33,5.78-10.91,4.7-17.83,4.7-17.83Z"/>
    <path class="cls-1" d="M88.12,99.66s12.71-.99,22.7,4.37,17.49,21.14,17.49,21.14c0,0-13.04,2.3-24.34-.26s-16.75-13.54-15.85-25.25Z"/>
    <g class="cls-8">
      <path class="cls-9" d="M104.56,173.03c-3.49-1.92-6.71-4.25-9.62-6.92,6.66-7.26,17.73-17.56,33.87-25.88,19.55-10.07,37.5-12.57,48.09-13.24,.07,1.04,.1,2.09,.1,3.15,0,27.01-21.9,48.91-48.91,48.91-8.53,0-16.55-2.18-23.53-6.02Z"/>
      <path class="cls-5" d="M103.27,171.07s27.36-29.65,73.41-35.33"/>
      <path class="cls-5" d="M116.64,185.36s23.04-34,61.82-40.52"/>
    </g>
    <path class="cls-2" d="M24.87,132.54s22.52-58.18,103.92-58.41c81.39-.23,102.52,58.41,102.52,58.41,0,0-20.47,59.86-101.46,59.77-81.29-.09-104.98-59.77-104.98-59.77Z"/>
  </g>
</svg>