<svg width="20" height="20" viewBox="0 0 20 20" fill="none" xmlns="http://www.w3.org/2000/svg">
<g clip-path="url(#clip0_185_137)">
<g clip-path="url(#clip1_185_137)">
<g clip-path="url(#clip2_185_137)">
<path d="M12.5 2.305V0.833333C12.5 0.3725 12.1267 0 11.6667 0C11.2067 0 10.8333 0.3725 10.8333 0.833333V1.66667H9.16667V0.833333C9.16667 0.3725 8.79333 0 8.33333 0C7.87333 0 7.5 0.3725 7.5 0.833333V1.66667H5.83333V0.833333C5.83333 0.3725 5.46 0 5 0C4.54 0 4.16667 0.3725 4.16667 0.833333V1.66667H2.5V0.833333C2.5 0.3725 2.12667 0 1.66667 0C1.20667 0 0.833333 0.3725 0.833333 0.833333V2.305C0.3225 2.76333 0 3.4275 0 4.16667V15.8333C0 18.1308 1.86917 20 4.16667 20H9.16667C11.4642 20 13.3333 18.1308 13.3333 15.8333V4.16667C13.3333 3.42833 13.0108 2.76333 12.5 2.305ZM11.6667 15.8333C11.6667 17.2117 10.545 18.3333 9.16667 18.3333H4.16667C2.78833 18.3333 1.66667 17.2117 1.66667 15.8333V4.16667C1.66667 3.70667 2.04083 3.33333 2.5 3.33333H10.8333C11.2925 3.33333 11.6667 3.70667 11.6667 4.16667V15.8333ZM10 6.66667C10 7.1275 9.62667 7.5 9.16667 7.5H4.16667C3.70667 7.5 3.33333 7.1275 3.33333 6.66667C3.33333 6.20583 3.70667 5.83333 4.16667 5.83333H9.16667C9.62667 5.83333 10 6.20583 10 6.66667ZM10 10C10 10.4608 9.62667 10.8333 9.16667 10.8333H4.16667C3.70667 10.8333 3.33333 10.4608 3.33333 10C3.33333 9.53917 3.70667 9.16667 4.16667 9.16667H9.16667C9.62667 9.16667 10 9.53917 10 10ZM7.5 13.3333C7.5 13.7942 7.12667 14.1667 6.66667 14.1667H4.16667C3.70667 14.1667 3.33333 13.7942 3.33333 13.3333C3.33333 12.8725 3.70667 12.5 4.16667 12.5H6.66667C7.12667 12.5 7.5 12.8725 7.5 13.3333ZM17.5 0C16.1217 0 15 1.12167 15 2.5V16.465C15 17.3433 15.3558 18.2017 15.9767 18.8217L16.9108 19.7558C17.0733 19.9183 17.2867 20 17.5 20C17.7133 20 17.9267 19.9183 18.0892 19.7558L19.0233 18.8217C19.6442 18.2017 20 17.3433 20 16.465V2.5C20 1.12167 18.8783 0 17.5 0ZM18.3333 16.465C18.3333 16.9033 18.1558 17.3333 17.845 17.6433L17.5 17.9883L17.155 17.6433C16.8442 17.3333 16.6667 16.9033 16.6667 16.465V2.5C16.6667 2.04 17.0408 1.66667 17.5 1.66667C17.9592 1.66667 18.3333 2.04 18.3333 2.5V16.465Z" fill="#2F55D8"/>
</g>
</g>
</g>
<defs>
<clipPath id="clip0_185_137">
<rect width="20" height="20" fill="white"/>
</clipPath>
<clipPath id="clip1_185_137">
<rect width="20" height="20" fill="white"/>
</clipPath>
<clipPath id="clip2_185_137">
<rect width="20" height="20" fill="white"/>
</clipPath>
</defs>
</svg>
