<svg width="30" height="30" viewBox="0 0 30 30" fill="none" xmlns="http://www.w3.org/2000/svg">
<g clip-path="url(#clip0_173_25)">
<path d="M11.25 0H6.25C2.80375 0 0 2.80375 0 6.25V8.75C0 10.1287 1.12125 11.25 2.5 11.25H11.25C12.6287 11.25 13.75 10.1287 13.75 8.75V2.5C13.75 1.12125 12.6287 0 11.25 0ZM2.5 8.75V6.25C2.5 4.1825 4.1825 2.5 6.25 2.5H11.25L11.2525 8.75H2.5ZM27.5 18.75H18.75C17.3713 18.75 16.25 19.8713 16.25 21.25V27.5C16.25 28.8787 17.3713 30 18.75 30H23.75C27.1963 30 30 27.1963 30 23.75V21.25C30 19.8713 28.8787 18.75 27.5 18.75ZM27.5 23.75C27.5 25.8175 25.8175 27.5 23.75 27.5H18.75V21.25H27.5V23.75ZM23.75 0H18.75C17.3713 0 16.25 1.12125 16.25 2.5V13.75C16.25 15.1287 17.3713 16.25 18.75 16.25H27.5C28.8787 16.25 30 15.1287 30 13.75V6.25C30 2.80375 27.1963 0 23.75 0ZM18.75 13.75V2.5H23.75C25.8175 2.5 27.5 4.1825 27.5 6.25L27.5025 13.75H18.75ZM11.25 13.75H2.5C1.12125 13.75 0 14.8713 0 16.25V23.75C0 27.1963 2.80375 30 6.25 30H11.25C12.6287 30 13.75 28.8787 13.75 27.5V16.25C13.75 14.8713 12.6287 13.75 11.25 13.75ZM6.25 27.5C4.1825 27.5 2.5 25.8175 2.5 23.75V16.25H11.25L11.2525 27.5H6.25Z" fill="#EDEDED"/>
</g>
<defs>
<clipPath id="clip0_173_25">
<rect width="30" height="30" fill="white"/>
</clipPath>
</defs>
</svg>
