<svg width="30" height="30" viewBox="0 0 30 30" fill="none" xmlns="http://www.w3.org/2000/svg">
<g clip-path="url(#clip0_173_20)">
<path d="M18.75 3.4575V1.25C18.75 0.55875 18.19 0 17.5 0C16.81 0 16.25 0.55875 16.25 1.25V2.5H13.75V1.25C13.75 0.55875 13.19 0 12.5 0C11.81 0 11.25 0.55875 11.25 1.25V2.5H8.75V1.25C8.75 0.55875 8.19 0 7.5 0C6.81 0 6.25 0.55875 6.25 1.25V2.5H3.75V1.25C3.75 0.55875 3.19 0 2.5 0C1.81 0 1.25 0.55875 1.25 1.25V3.4575C0.48375 4.145 0 5.14125 0 6.25V23.75C0 27.1963 2.80375 30 6.25 30H13.75C17.1963 30 20 27.1963 20 23.75V6.25C20 5.1425 19.5163 4.145 18.75 3.4575ZM17.5 23.75C17.5 25.8175 15.8175 27.5 13.75 27.5H6.25C4.1825 27.5 2.5 25.8175 2.5 23.75V6.25C2.5 5.56 3.06125 5 3.75 5H16.25C16.9387 5 17.5 5.56 17.5 6.25V23.75ZM15 10C15 10.6912 14.44 11.25 13.75 11.25H6.25C5.56 11.25 5 10.6912 5 10C5 9.30875 5.56 8.75 6.25 8.75H13.75C14.44 8.75 15 9.30875 15 10ZM15 15C15 15.6912 14.44 16.25 13.75 16.25H6.25C5.56 16.25 5 15.6912 5 15C5 14.3088 5.56 13.75 6.25 13.75H13.75C14.44 13.75 15 14.3088 15 15ZM11.25 20C11.25 20.6912 10.69 21.25 10 21.25H6.25C5.56 21.25 5 20.6912 5 20C5 19.3088 5.56 18.75 6.25 18.75H10C10.69 18.75 11.25 19.3088 11.25 20ZM26.25 0C24.1825 0 22.5 1.6825 22.5 3.75V24.6975C22.5 26.015 23.0338 27.3025 23.965 28.2325L25.3662 29.6338C25.61 29.8775 25.93 30 26.25 30C26.57 30 26.89 29.8775 27.1338 29.6338L28.535 28.2325C29.4662 27.3025 30 26.015 30 24.6975V3.75C30 1.6825 28.3175 0 26.25 0ZM27.5 24.6975C27.5 25.355 27.2337 26 26.7675 26.465L26.25 26.9825L25.7325 26.465C25.2663 26 25 25.355 25 24.6975V3.75C25 3.06 25.5613 2.5 26.25 2.5C26.9387 2.5 27.5 3.06 27.5 3.75V24.6975Z" fill="#EEEEEE"/>
</g>
<defs>
<clipPath id="clip0_173_20">
<rect width="30" height="30" fill="white"/>
</clipPath>
</defs>
</svg>
