<svg width="30" height="30" viewBox="0 0 30 30" fill="none" xmlns="http://www.w3.org/2000/svg">
<path d="M29.9988 5V8.735C29.9988 10.1137 28.8775 11.235 27.4988 11.235L23.7537 11.25H23.7488C23.06 11.25 22.5013 10.6937 22.4988 10.005C22.4963 9.315 23.0525 8.7525 23.7438 8.75L25.79 8.7425C23.57 4.9225 19.4775 2.5 14.9987 2.5C14.4287 2.5 13.8538 2.53875 13.2925 2.615C12.6062 2.7075 11.9775 2.22875 11.885 1.54625C11.7925 0.8625 12.2712 0.2325 12.955 0.13875C13.6275 0.04625 14.315 0 14.9987 0C20.07 0 24.7463 2.575 27.4963 6.715L27.4988 5C27.4988 4.31 28.0575 3.75 28.7488 3.75C29.44 3.75 29.9988 4.31 29.9988 5ZM6.58625 4.20375C6.98 4.70875 7.69375 4.835 8.23125 4.4875C8.55625 4.2775 8.89125 4.08375 9.23375 3.905C9.80125 3.61 10.045 2.9275 9.8025 2.335C9.52125 1.65 8.70875 1.3575 8.05375 1.70125C7.66125 1.90625 7.27625 2.13 6.90375 2.37C6.28125 2.77 6.13 3.62 6.58625 4.20375ZM1.31125 15C1.9525 15 2.49125 14.515 2.5475 13.8762C2.58125 13.49 2.63375 13.105 2.70375 12.725C2.81875 12.095 2.43125 11.485 1.81375 11.3137C1.10125 11.115 0.37125 11.5763 0.24 12.305C0.16125 12.7413 0.10125 13.1813 0.06 13.6238C-0.0075 14.36 0.57125 15 1.31125 15ZM2.69875 8.99C3.27375 9.27125 3.97 9.07375 4.3025 8.52625C4.50375 8.195 4.71875 7.87375 4.95 7.5625C5.33125 7.04875 5.2525 6.32875 4.77375 5.9025C4.22125 5.40875 3.36375 5.5025 2.92375 6.0975C2.66 6.455 2.4125 6.82375 2.18125 7.2025C1.79625 7.835 2.03375 8.66375 2.69875 8.99ZM23.4113 25.7962C23.0175 25.2912 22.3038 25.165 21.7663 25.5125C21.4412 25.7225 21.1063 25.9163 20.7638 26.095C20.1963 26.39 19.9525 27.0725 20.195 27.665C20.4762 28.35 21.2887 28.6425 21.9438 28.2987C22.3363 28.0938 22.7213 27.87 23.0938 27.63C23.7163 27.23 23.8663 26.38 23.41 25.7975L23.4113 25.7962ZM27.2988 21.0087C26.7238 20.7275 26.0275 20.925 25.695 21.4725C25.4937 21.8037 25.2787 22.125 25.0475 22.4362C24.6663 22.95 24.745 23.67 25.2238 24.0963C25.7763 24.59 26.6338 24.4963 27.0737 23.9013C27.3375 23.5438 27.585 23.175 27.8162 22.7962C28.2013 22.1637 27.9638 21.335 27.2988 21.0087ZM28.6863 14.9987C28.045 14.9987 27.5063 15.4837 27.45 16.1225C27.4163 16.5087 27.3638 16.8938 27.2938 17.2738C27.1788 17.9037 27.5663 18.5138 28.1838 18.685C28.8963 18.8837 29.6262 18.4225 29.7575 17.6938C29.8363 17.2575 29.8963 16.8175 29.9375 16.375C30.005 15.6388 29.4263 14.9987 28.6863 14.9987ZM16.7062 27.3837C16.145 27.46 15.57 27.4988 15 27.4988C10.5212 27.4988 6.42875 25.0762 4.20875 21.2562L6.255 21.2488C6.94625 21.2463 7.5025 20.6838 7.5 19.9937C7.4975 19.305 6.93875 18.7487 6.25 18.7487H6.245L2.5 18.7638C1.12125 18.7638 0 19.885 0 21.2638V24.9988C0 25.6888 0.55875 26.2488 1.25 26.2488C1.94125 26.2488 2.5 25.6888 2.5 24.9988L2.5025 23.2838C5.2525 27.425 9.93 29.9988 15 29.9988C15.6838 29.9988 16.3712 29.9525 17.0437 29.86C17.7287 29.7663 18.2075 29.1362 18.1137 28.4525C18.02 27.7687 17.3875 27.285 16.7062 27.3837ZM19.6488 19.4475L16.5375 21.175C16.0687 21.435 15.545 21.565 15.0212 21.565C14.4837 21.565 13.9487 21.4287 13.4712 21.155L10.3312 19.36C9.36 18.8037 8.75625 17.765 8.75625 16.6475V13.015C8.75625 11.8912 9.36375 10.8488 10.3438 10.295L13.4625 8.52875C14.4062 7.99375 15.5737 7.985 16.5375 8.525L19.67 10.295C20.6488 10.8488 21.2513 11.8913 21.2513 13.0163V16.7138C21.2513 17.8488 20.6412 18.895 19.65 19.4463L19.6488 19.4475ZM12.6075 11.8875L15.0087 13.26L17.4075 11.89L15.3112 10.705C15.125 10.5988 14.8813 10.5975 14.6962 10.705L12.6087 11.8875H12.6075ZM13.7525 18.4362L13.7562 15.4225L11.2562 13.9937V16.6475C11.2562 16.8713 11.3775 17.0788 11.5725 17.19L13.7525 18.4362ZM18.7562 16.715V13.9975L16.2562 15.4262L16.2525 18.4738L18.4362 17.2612C18.6337 17.1513 18.7575 16.9425 18.7575 16.715H18.7562Z" fill="#EDEDED"/>
</svg>
