<svg width="30" height="27" viewBox="0 0 30 27" fill="none" xmlns="http://www.w3.org/2000/svg">
<path d="M28.8431 17.9125L18.7431 1.9625C17.8931 0.7375 16.4806 0 14.9931 0C13.5056 0 12.0931 0.725 11.2056 2L1.1556 17.8875C-0.119398 19.7125 -0.356898 21.9 0.530602 23.5875C1.4056 25.275 3.2431 26.2375 5.5431 26.2375H24.4431C26.7556 26.2375 28.5806 25.275 29.4556 23.5875C30.3306 21.9 30.0931 19.725 28.8431 17.9125ZM13.7431 7.5C13.7431 6.8125 14.3056 6.25 14.9931 6.25C15.6806 6.25 16.2431 6.8125 16.2431 7.5V15C16.2431 15.6875 15.6806 16.25 14.9931 16.25C14.3056 16.25 13.7431 15.6875 13.7431 15V7.5ZM14.9931 22.5C13.9556 22.5 13.1181 21.6625 13.1181 20.625C13.1181 19.5875 13.9556 18.75 14.9931 18.75C16.0306 18.75 16.8681 19.5875 16.8681 20.625C16.8681 21.6625 16.0306 22.5 14.9931 22.5Z" fill="#F59E0B"/>
</svg>
