<svg width="30" height="30" viewBox="0 0 30 30" fill="none" xmlns="http://www.w3.org/2000/svg">
<path d="M22.7675 11.3725C23.2513 11.865 23.2438 12.6563 22.75 13.14L17.2175 18.5713C16.2388 19.5313 14.9787 20.01 13.7175 20.01C12.47 20.01 11.2225 19.54 10.2475 18.5987L7.87375 16.265C7.38125 15.7812 7.375 14.99 7.85875 14.4975C8.34125 14.0037 9.135 13.9975 9.62625 14.4825L11.9925 16.8088C12.9625 17.7463 14.4938 17.7412 15.4688 16.7862L21 11.3562C21.4913 10.8712 22.28 10.88 22.7675 11.3725ZM30 15C30 23.2712 23.2712 30 15 30C6.72875 30 0 23.2712 0 15C0 6.72875 6.72875 0 15 0C23.2712 0 30 6.72875 30 15ZM27.5 15C27.5 8.1075 21.8925 2.5 15 2.5C8.1075 2.5 2.5 8.1075 2.5 15C2.5 21.8925 8.1075 27.5 15 27.5C21.8925 27.5 27.5 21.8925 27.5 15Z" fill="#1F6F5F"/>
</svg>
