<svg width="30" height="22" viewBox="0 0 30 22" fill="none" xmlns="http://www.w3.org/2000/svg">
<path d="M14.9891 8.46563C16.3641 8.46563 17.4891 9.59063 17.4891 10.9656C17.4891 12.3406 16.3641 13.4656 14.9891 13.4656C13.6141 13.4656 12.4891 12.3406 12.4891 10.9656C12.4891 9.59063 13.6141 8.46563 14.9891 8.46563ZM25.6016 21.5781C31.4516 15.7281 31.4516 6.21563 25.6016 0.365625C25.1141 -0.121875 24.3266 -0.121875 23.8391 0.365625C23.3516 0.853125 23.3516 1.64062 23.8391 2.12812C28.7141 7.00313 28.7141 14.9281 23.8391 19.8031C23.3516 20.2906 23.3516 21.0781 23.8391 21.5656C24.0891 21.8156 24.4016 21.9281 24.7266 21.9281C25.0516 21.9281 25.3641 21.8031 25.6141 21.5656L25.6016 21.5781ZM21.1766 17.1531C22.8266 15.5031 23.7391 13.3031 23.7391 10.9656C23.7391 8.62813 22.8266 6.42813 21.1766 4.77813C20.6891 4.29063 19.9016 4.29063 19.4141 4.77813C18.9266 5.26563 18.9266 6.05313 19.4141 6.54063C20.5891 7.71563 21.2391 9.29063 21.2391 10.9656C21.2391 12.6406 20.5891 14.2031 19.4141 15.3906C18.9266 15.8781 18.9266 16.6656 19.4141 17.1531C19.6641 17.4031 19.9766 17.5156 20.3016 17.5156C20.6266 17.5156 20.9391 17.3906 21.1891 17.1531H21.1766ZM6.15156 21.5781C6.63906 21.0906 6.63906 20.3031 6.15156 19.8156C1.27656 14.9406 1.27656 7.01563 6.15156 2.14063C6.63906 1.65313 6.63906 0.865625 6.15156 0.378125C5.66406 -0.109375 4.87656 -0.109375 4.38906 0.378125C-1.46094 6.20313 -1.46094 15.7281 4.37656 21.5781C4.62656 21.8281 4.93906 21.9406 5.26406 21.9406C5.58906 21.9406 5.90156 21.8156 6.15156 21.5781ZM10.5766 17.1531C11.0641 16.6656 11.0641 15.8781 10.5766 15.3906C8.13906 12.9531 8.13906 8.99063 10.5766 6.55313C11.0641 6.06563 11.0641 5.27813 10.5766 4.79063C10.0891 4.30313 9.30156 4.30313 8.81406 4.79063C5.40156 8.20313 5.40156 13.7531 8.81406 17.1656C9.06406 17.4156 9.37656 17.5281 9.70156 17.5281C10.0266 17.5281 10.3391 17.4031 10.5891 17.1656L10.5766 17.1531Z" fill="#EDEDED"/>
</svg>
