<svg width="40" height="40" viewBox="0 0 40 40" fill="none" xmlns="http://www.w3.org/2000/svg">
<path d="M20 28.3333C15.4 28.3333 11.6667 24.6 11.6667 20C11.6667 15.4 15.4 11.6667 20 11.6667C24.6 11.6667 28.3333 15.4 28.3333 20C28.3333 24.6 24.6 28.3333 20 28.3333ZM20 15C17.25 15 15 17.25 15 20C15 22.75 17.25 25 20 25C22.75 25 25 22.75 25 20C25 17.25 22.75 15 20 15ZM21.6667 6.66667V1.66667C21.6667 0.75 20.9167 0 20 0C19.0833 0 18.3333 0.75 18.3333 1.66667V6.66667C18.3333 7.58333 19.0833 8.33333 20 8.33333C20.9167 8.33333 21.6667 7.58333 21.6667 6.66667ZM21.6667 38.3333V33.3333C21.6667 32.4167 20.9167 31.6667 20 31.6667C19.0833 31.6667 18.3333 32.4167 18.3333 33.3333V38.3333C18.3333 39.25 19.0833 40 20 40C20.9167 40 21.6667 39.25 21.6667 38.3333ZM8.33333 20C8.33333 19.0833 7.58333 18.3333 6.66667 18.3333H1.66667C0.75 18.3333 0 19.0833 0 20C0 20.9167 0.75 21.6667 1.66667 21.6667H6.66667C7.58333 21.6667 8.33333 20.9167 8.33333 20ZM40 20C40 19.0833 39.25 18.3333 38.3333 18.3333H33.3333C32.4167 18.3333 31.6667 19.0833 31.6667 20C31.6667 20.9167 32.4167 21.6667 33.3333 21.6667H38.3333C39.25 21.6667 40 20.9167 40 20ZM11.1833 11.1833C11.8333 10.5333 11.8333 9.48333 11.1833 8.83333L7.85 5.5C7.2 4.85 6.15 4.85 5.5 5.5C4.85 6.15 4.85 7.2 5.5 7.85L8.83333 11.1833C9.16667 11.5167 9.58333 11.6667 10.0167 11.6667C10.45 11.6667 10.8667 11.5 11.2 11.1833H11.1833ZM34.5167 34.5167C35.1667 33.8667 35.1667 32.8167 34.5167 32.1667L31.1833 28.8333C30.5333 28.1833 29.4833 28.1833 28.8333 28.8333C28.1833 29.4833 28.1833 30.5333 28.8333 31.1833L32.1667 34.5167C32.5 34.85 32.9167 35 33.35 35C33.7833 35 34.2 34.8333 34.5333 34.5167H34.5167ZM7.85 34.5167L11.1833 31.1833C11.8333 30.5333 11.8333 29.4833 11.1833 28.8333C10.5333 28.1833 9.48333 28.1833 8.83333 28.8333L5.5 32.1667C4.85 32.8167 4.85 33.8667 5.5 34.5167C5.83333 34.85 6.25 35 6.68333 35C7.11667 35 7.53333 34.8333 7.86667 34.5167H7.85ZM31.1833 11.1833L34.5167 7.85C35.1667 7.2 35.1667 6.15 34.5167 5.5C33.8667 4.85 32.8167 4.85 32.1667 5.5L28.8333 8.83333C28.1833 9.48333 28.1833 10.5333 28.8333 11.1833C29.1667 11.5167 29.5833 11.6667 30.0167 11.6667C30.45 11.6667 30.8667 11.5 31.2 11.1833H31.1833Z" fill="#E3BE29"/>
</svg>
