<svg width="30" height="28" viewBox="0 0 30 28" fill="none" xmlns="http://www.w3.org/2000/svg">
<path d="M27.5719 5.31555L18.3544 0.924297C16.3254 -0.287656 13.8 -0.30916 11.7506 0.868047L2.42944 5.31555C2.39446 5.33307 2.35819 5.35182 2.32444 5.3718C0.112407 6.6366 -0.655523 9.45514 0.609282 11.6672C1.03801 12.4171 1.66866 13.0315 2.42944 13.4406L5.00071 14.6656V20.7906C5.00223 23.5294 6.78436 25.9491 9.39946 26.7631C11.2193 27.2895 13.1063 27.5473 15.0007 27.5281C16.8948 27.5493 18.7818 27.2937 20.602 26.7694C23.2171 25.9554 24.9992 23.5357 25.0007 20.7968V14.6631L27.5008 13.468V23.778C27.5008 24.4684 28.0604 25.028 28.7507 25.028C29.4411 25.028 30.0007 24.4684 30.0007 23.778V8.77803C30.009 7.3102 28.8501 5.95422 27.5719 5.31555ZM22.5007 20.7968C22.5013 22.4351 21.4384 23.8841 19.8757 24.3756C18.2909 24.8284 16.6487 25.0482 15.0007 25.0281C13.3526 25.0482 11.7104 24.8284 10.1257 24.3756C8.56291 23.8841 7.50002 22.4351 7.50067 20.7968V15.8569L11.6469 17.8319C12.67 18.4394 13.8384 18.7586 15.0282 18.7556C16.1607 18.7636 17.2742 18.4638 18.2495 17.8881L22.5007 15.8568V20.7968ZM26.5007 11.1843L17.0732 15.6843C15.7587 16.4497 14.1294 16.428 12.8357 15.628L3.61192 11.2405C2.58377 10.6861 2.19975 9.40322 2.75416 8.37514C2.94166 8.02744 3.2228 7.73922 3.56569 7.54305L12.9344 3.06807C14.2493 2.30436 15.8778 2.32598 17.1719 3.12432L26.3894 7.51557C27.0673 7.89197 27.4914 8.60277 27.5006 9.37809C27.5019 10.1125 27.1237 10.7955 26.5007 11.1843Z" fill="#EDEDED"/>
</svg>
