<svg width="30" height="30" viewBox="0 0 30 30" fill="none" xmlns="http://www.w3.org/2000/svg">
<path d="M15 0C6.72875 0 0 6.72875 0 15C0 23.2712 6.72875 30 15 30C23.2712 30 30 23.2712 30 15C30 6.72875 23.2712 0 15 0ZM15 27.5C8.1075 27.5 2.5 21.8925 2.5 15C2.5 8.1075 8.1075 2.5 15 2.5C21.8925 2.5 27.5 8.1075 27.5 15C27.5 21.8925 21.8925 27.5 15 27.5ZM20 17.5C20 19.5675 18.3175 21.25 16.25 21.25V22.5C16.25 23.1912 15.6912 23.75 15 23.75C14.3088 23.75 13.75 23.1912 13.75 22.5V21.25H13.415C12.0813 21.25 10.8362 20.5325 10.1675 19.3763C9.82125 18.7775 10.0262 18.0138 10.6225 17.6688C11.2213 17.32 11.9862 17.5275 12.33 18.1237C12.5538 18.5112 12.9688 18.75 13.4137 18.75H16.2487C16.9387 18.75 17.4987 18.19 17.4987 17.5C17.4987 17.0275 17.16 16.6275 16.6937 16.55L12.8925 15.9163C11.215 15.6375 9.99875 14.2 9.99875 12.5C9.99875 10.4325 11.6812 8.75 13.7487 8.75V7.5C13.7487 6.81 14.3075 6.25 14.9987 6.25C15.69 6.25 16.2487 6.81 16.2487 7.5V8.75H16.5837C17.9175 8.75 19.1625 9.46875 19.8312 10.625C20.1775 11.2225 19.9725 11.9862 19.3763 12.3325C18.7763 12.6788 18.0125 12.4738 17.6688 11.8763C17.445 11.49 17.03 11.2513 16.585 11.2513H13.75C13.06 11.2513 12.5 11.8125 12.5 12.5013C12.5 12.9738 12.8387 13.3737 13.305 13.4513L17.1063 14.085C18.7838 14.3637 20 15.8013 20 17.5013V17.5Z" fill="#EDEDED"/>
</svg>
